# xmcd CD database file generated by Grip 2.91
# 
# Track frame offsets:
#       150
#       13147
#       26761
#       40762
#       53275
#       65180
#       78933
#       91007
#       102458
#       115818
#       128029
#       141006
#       153328
#       166586
#       180000
#       192484
#       205093
#       218190
#       231338
#       244394
#       256762
#       270592
#       285283
#       299798
# 
# Disc length: 4149 seconds
# 
# Revision: 3
# Processed by: cddbd v1.4b41PL1 Copyright (c) Steve Scherf et al.
# Submitted via: Grip 2.91
# 
DISCID=4b103318
DTITLE=Various Artist - A Portrait Of Vintage Blues CD 2
DYEAR=1900
DGENRE=
TTITLE0=Bull Cow Blues - Big Bill Broozny - 1932
TTITLE1=Sweet Home Chicago - Robert Johnson - 1936
TTITLE2=Sarah Jane - Jazz Gillum - 1936
TTITLE3=Train Whistle Blues - Sonny Terry - 1938
TTITLE4=New Pains In My Heart - Bill Gaither - 1938
TTITLE5=Good Morning, School Girl - Sonny Boy Williamson - 1937
TTITLE6=Lost Baby Blues - Big Walter Horton - 1939
TTITLE7=You Can't Stop Me From Drinking - Peatie Wheatstraw - 1939
TTITLE8=Rock Me Mama - Arthur Big Boy Crudup - 1940
TTITLE9=Dupree Shake Dance - Champion Jack Dupree - 1935
TTITLE10=Good Morning Blues - Leadbelly - 1940
TTITLE11=Dealin' With The Devil - Brownie McGhee - 1941
TTITLE12=Piney Brown Blues - Big Joe Turner - 1940
TTITLE13=New Confessin' The Blues - Walter Brown - 1941
TTITLE14=Please Don't Go - Big Joe Williams - 1941
TTITLE15=Up North Blues - Yank Rachell - 1941
TTITLE16=Jimmy's Blues - Jimmy Rushing - 1944
TTITLE17=Here Comes The Blues - Wynonie Harris - 1945
TTITLE18=Mean Old Wolrd - T-Bone Walker - 1942
TTITLE19=Big Fat Mama - Roy Milton - 1947
TTITLE20=If The Sea Was Whiskey - Willie Dixon - 1947
TTITLE21=Blues At Sunrise - Ivory Joe hunter - 1945
TTITLE22=Driftin' Blues - Charles Brown - 1945
TTITLE23=Let Me Play With Your Poodle - Lightning Hopkins - 1947
EXTD=
EXTT0=
EXTT1=
EXTT2=
EXTT3=
EXTT4=
EXTT5=
EXTT6=
EXTT7=
EXTT8=
EXTT9=
EXTT10=
EXTT11=
EXTT12=
EXTT13=
EXTT14=
EXTT15=
EXTT16=
EXTT17=
EXTT18=
EXTT19=
EXTT20=
EXTT21=
EXTT22=
EXTT23=
PLAYORDER=
